<?xml version="1.0" encoding="iso-8859-1"?>
<!-- Uploaded to: SVG Repo, www.svgrepo.com, Generator: SVG Repo Mixer Tools -->
<svg version="1.1" id="Layer_1" xmlns="http://www.w3.org/2000/svg" xmlns:xlink="http://www.w3.org/1999/xlink" 
	 viewBox="0 0 480 480" xml:space="preserve">
<path style="fill:#F5BA46;" d="M229.296,154.504l-23.416-64C203.568,84.192,197.568,80,190.856,80h-39.112
	c-6.72,0-12.72,4.192-15.024,10.504l-23.416,64C109.472,164.944,117.2,176,128.32,176h85.952
	C225.392,176,233.12,164.944,229.296,154.504z"/>
<circle style="fill:#F9D58F;" cx="181.928" cy="113.832" r="8.328"/>
<path style="fill:#F5BA46;" d="M342.272,176H256.32c-11.12,0-18.848-11.056-15.024-21.496l23.424-64
	C267.024,84.192,273.024,80,279.744,80h39.112c6.72,0,12.72,4.192,15.024,10.504l23.416,64C361.12,164.944,353.392,176,342.272,176z
	"/>
<circle style="fill:#F9D58F;" cx="312.64" cy="113.832" r="8.328"/>
<path style="fill:#F5BA46;" d="M150.272,272H64.32c-11.12,0-18.848-11.056-15.024-21.496l23.424-64
	C75.024,180.192,81.024,176,87.744,176h39.112c6.712,0,12.72,4.192,15.024,10.504l23.416,64C169.12,260.944,161.392,272,150.272,272
	z"/>
<circle style="fill:#F9D58F;" cx="120.64" cy="213.832" r="8.328"/>
<path style="fill:#F5BA46;" d="M278.272,272H192.32c-11.12,0-18.848-11.056-15.024-21.496l23.416-64
	c2.312-6.312,8.312-10.504,15.032-10.504h39.112c6.72,0,12.72,4.192,15.024,10.504l23.416,64
	C297.12,260.944,289.392,272,278.272,272z"/>
<circle style="fill:#F9D58F;" cx="249.44" cy="213.832" r="8.328"/>
<path style="fill:#F5BA46;" d="M406.272,272H320.32c-11.12,0-18.848-11.056-15.024-21.496l23.424-64
	c2.304-6.312,8.304-10.504,15.024-10.504h39.112c6.72,0,12.72,4.192,15.024,10.504l23.416,64
	C425.12,260.944,417.392,272,406.272,272z"/>
<path d="M428.816,247.752l-23.424-64C401.944,174.328,392.888,168,382.856,168h-18.024c1.84-5.208,1.928-10.944-0.016-16.248
	l-23.424-64C337.944,78.328,328.888,72,318.856,72h-39.112c-10.032,0-19.088,6.328-22.536,15.752l-21.904,59.864l-21.912-59.864
	C209.944,78.328,200.888,72,190.856,72h-39.112c-10.032,0-19.088,6.328-22.536,15.752l-23.416,64
	c-1.944,5.304-1.864,11.04-0.016,16.248H87.752c-10.032,0-19.088,6.328-22.536,15.752l-23.416,64
	c-2.696,7.352-1.624,15.576,2.864,22C49.136,276.168,56.488,280,64.32,280h85.952c7.832,0,15.184-3.832,19.672-10.248
	c0.56-0.8,0.904-1.696,1.352-2.544c0.448,0.848,0.792,1.744,1.352,2.544c4.488,6.416,11.84,10.248,19.672,10.248h85.952
	c7.832,0,15.184-3.832,19.672-10.248c0.56-0.8,0.904-1.696,1.352-2.544c0.448,0.848,0.792,1.744,1.352,2.544
	c4.488,6.416,11.84,10.248,19.672,10.248h85.952c7.832,0,15.184-3.832,19.672-10.248
	C430.432,263.328,431.504,255.112,428.816,247.752z M248.808,157.248l23.416-64c1.152-3.136,4.176-5.248,7.52-5.248h39.112
	c3.344,0,6.36,2.112,7.512,5.248l23.424,64c0.912,2.488,0.56,5.168-0.96,7.336S344.92,168,342.272,168H256.32
	c-2.656,0-5.04-1.24-6.56-3.416C248.248,162.416,247.896,159.744,248.808,157.248z M120.808,157.248l23.416-64
	c1.152-3.136,4.176-5.248,7.52-5.248h39.112c3.344,0,6.36,2.112,7.512,5.248l23.424,64c0.912,2.488,0.56,5.168-0.96,7.336
	S216.92,168,214.272,168H128.32c-2.656,0-5.04-1.24-6.56-3.416C120.248,162.416,119.896,159.744,120.808,157.248z M156.832,260.584
	c-1.52,2.176-3.912,3.416-6.56,3.416H64.32c-2.656,0-5.04-1.24-6.56-3.416c-1.512-2.168-1.864-4.84-0.952-7.336l23.416-64
	c1.152-3.136,4.176-5.248,7.52-5.248h39.112c3.344,0,6.36,2.112,7.512,5.248l23.424,64
	C158.696,255.736,158.352,258.416,156.832,260.584z M171.296,243.616L149.48,184h43.632L171.296,243.616z M284.832,260.584
	c-1.52,2.176-3.912,3.416-6.56,3.416H192.32c-2.656,0-5.04-1.24-6.56-3.416c-1.512-2.168-1.864-4.84-0.952-7.336l23.416-64
	c1.152-3.136,4.176-5.248,7.52-5.248h39.112c3.344,0,6.36,2.112,7.512,5.248l23.424,64
	C286.696,255.736,286.352,258.416,284.832,260.584z M299.296,243.616L277.48,184h43.632L299.296,243.616z M412.832,260.584
	c-1.52,2.176-3.912,3.416-6.56,3.416H320.32c-2.656,0-5.04-1.24-6.56-3.416c-1.512-2.168-1.864-4.84-0.952-7.336l23.416-64
	c1.152-3.136,4.176-5.248,7.52-5.248h39.112c3.344,0,6.36,2.112,7.512,5.248l23.424,64
	C414.696,255.736,414.352,258.416,412.832,260.584z"/>
<circle style="fill:#F9D58F;" cx="377.44" cy="213.832" r="8.328"/>
<path d="M64,48h-8v-8c0-4.424-3.584-8-8-8s-8,3.576-8,8v8h-8c-4.416,0-8,3.576-8,8s3.584,8,8,8h8v8c0,4.424,3.584,8,8,8s8-3.576,8-8
	v-8h8c4.416,0,8-3.576,8-8S68.416,48,64,48z"/>
<path d="M464,123.312l5.656-5.656c3.128-3.128,3.128-8.184,0-11.312s-8.184-3.128-11.312,0L452.688,112l-5.656-5.656
	c-3.128-3.128-8.184-3.128-11.312,0s-3.128,8.184,0,11.312l5.656,5.656l-5.656,5.656c-3.128,3.128-3.128,8.184,0,11.312
	c1.56,1.56,3.608,2.344,5.656,2.344s4.096-0.784,5.656-2.344l5.656-5.656l5.656,5.656c1.56,1.56,3.608,2.344,5.656,2.344
	s4.096-0.784,5.656-2.344c3.128-3.128,3.128-8.184,0-11.312L464,123.312z"/>
<path d="M240,27.2c-4.416,0-8-3.576-8-8V8c0-4.424,3.584-8,8-8c4.416,0,8,3.576,8,8v11.2C248,23.624,244.416,27.2,240,27.2z"/>
<path d="M288,56h-19.2c-4.416,0-8-3.576-8-8s3.584-8,8-8H288c4.416,0,8,3.576,8,8S292.416,56,288,56z"/>
<path d="M211.2,56H192c-4.416,0-8-3.576-8-8s3.584-8,8-8h19.2c4.416,0,8,3.576,8,8S215.616,56,211.2,56z"/>
<path d="M219.64,35.632c-2.048,0-4.096-0.784-5.656-2.344L200.4,19.72c-3.128-3.12-3.128-8.184,0-11.312s8.192-3.128,11.32,0
	l13.576,13.568c3.128,3.12,3.128,8.184,0,11.312C223.736,34.848,221.68,35.632,219.64,35.632z"/>
<path d="M260.36,35.632c-2.048,0-4.096-0.784-5.664-2.344c-3.12-3.128-3.12-8.192,0-11.312l13.576-13.568
	c3.128-3.128,8.192-3.128,11.32,0c3.12,3.128,3.12,8.192,0,11.312l-13.576,13.568C264.456,34.848,262.408,35.632,260.36,35.632z"/>
<rect x="320" y="328" style="fill:#F8F8FA;" width="48" height="136"/>
<path style="fill:#F1998A;" d="M240,392.304h-59.68c-11.224,0-20.32-8.968-20.32-20.184v-0.032c0-8.256,4.992-15.688,12.632-18.808
	l62.64-25.608c3.072-1.256,6.464-1.528,9.696-0.768L320,344.44l-0.536,109.224l-75.792,17.912c-2.416,0.568-4.928,0.568-7.344,0
	L104,440.44l-88.872-59.248C10.672,378.224,8,373.224,8,367.88V350c0-10.736,10.36-18.424,20.632-15.312L160,374.376"/>
<path style="fill:#4A88DB;" d="M472,472h-88c-8.84,0-16-7.16-16-16V336c0-8.84,7.16-16,16-16h88V472z"/>
<path d="M472,312h-88c-7.064,0-13.36,3.128-17.76,8H320c-4.416,0-8,3.576-8,8v6.352l-65.224-15.248
	c-4.88-1.128-9.92-0.728-14.528,1.168l-62.64,25.6c-8.096,3.312-14.016,10.008-16.424,18.096l-122.24-36.936
	c-7.328-2.216-15.088-0.856-21.256,3.712C3.528,335.304,0,342.328,0,350v17.872c0,8.04,4,15.504,10.688,19.968l88.872,59.248
	c0.792,0.528,1.672,0.912,2.608,1.136l132.344,31.144c1.792,0.424,3.632,0.624,5.48,0.624c1.856,0,3.72-0.208,5.52-0.632
	L312,463.648V464c0,4.424,3.584,8,8,8h46.24c4.392,4.872,10.696,8,17.76,8h88c4.416,0,8-3.576,8-8V320
	C480,315.576,476.416,312,472,312z M311.496,447.328l-69.664,16.456c-1.2,0.304-2.48,0.296-3.672,0.008l-130.92-30.808
	l-87.68-58.456c-2.224-1.48-3.56-3.976-3.56-6.656V350c0-2.552,1.176-4.896,3.232-6.424c2.048-1.528,4.632-1.992,7.088-1.24
	l127.024,38.232C157.008,391.92,167.72,400,180.32,400H240c4.416,0,8-3.576,8-8s-3.584-8-8-8h-59.68
	c-6.792,0-12.32-5.32-12.32-12.064c0-5.024,3.008-9.432,7.664-11.328l62.648-25.56c1.536-0.64,3.216-0.752,4.84-0.368l68.824,16.096
	L311.496,447.328z M328,456V336h32v120H328z M464,464h-80c-4.408,0-8-3.584-8-8V336c0-4.416,3.592-8,8-8h80V464z"/>
<path d="M433.432,448h-24c-4.416,0-8-3.576-8-8s3.584-8,8-8h24c4.416,0,8,3.576,8,8S437.848,448,433.432,448z"/>
</svg>