<?xml version="1.0" encoding="iso-8859-1"?>
<!-- Uploaded to: SVG Repo, www.svgrepo.com, Generator: SVG Repo Mixer Tools -->
<svg height="800px" width="800px" version="1.1" id="Layer_1" xmlns="http://www.w3.org/2000/svg" xmlns:xlink="http://www.w3.org/1999/xlink" 
	 viewBox="0 0 512 512" xml:space="preserve">
<circle style="fill:#BBBBBB;" cx="409.44" cy="324.856" r="51.288"/>
<g>
	<path style="fill:#333333;" d="M407.144,498.72l-49.008-107.128c0,0-51.288,1.136-51.288,47.872v59.256L407.144,498.72
		L407.144,498.72z"/>
	<path style="fill:#333333;" d="M411.704,498.72l49.008-107.136c0,0,51.288,1.144,51.288,47.872v59.264H411.704z"/>
</g>
<polygon style="fill:#E21B1B;" points="373.584,391.592 409.424,471.368 445.272,391.592 "/>
<circle style="fill:#BBBBBB;" cx="102.576" cy="324.856" r="51.288"/>
<g>
	<path style="fill:#333333;" d="M100.296,498.72L51.288,391.592c0,0-51.288,1.136-51.288,47.864v59.264H100.296z"/>
	<path style="fill:#333333;" d="M104.856,498.72l49.008-107.136c0,0,51.288,1.136,51.288,47.872v59.264H104.856z"/>
</g>
<g>
	<polygon style="fill:#E21B1B;" points="66.728,391.592 102.576,471.368 138.416,391.592 	"/>
	<path style="fill:#E21B1B;" d="M177.792,13.28H378.92c21.832,0,39.536,17.704,39.536,39.536v131.32
		c0,21.832-17.704,39.536-39.536,39.536H177.792c-21.832,0-39.536-17.704-39.536-39.536V52.816
		C138.256,30.984,155.96,13.28,177.792,13.28z"/>
	<polygon style="fill:#E21B1B;" points="201.488,223.664 201.488,283.944 282.856,223.664 	"/>
</g>
</svg>