<?xml version="1.0" encoding="iso-8859-1"?>
<!-- Uploaded to: SVG Repo, www.svgrepo.com, Generator: SVG Repo Mixer Tools -->
<svg version="1.1" id="Layer_1" xmlns="http://www.w3.org/2000/svg" xmlns:xlink="http://www.w3.org/1999/xlink" 
	 viewBox="0 0 512 512" xml:space="preserve">
<path style="fill:#3440DB;" d="M488.727,0h-93.091H256H116.364H23.273C10.42,0,0,10.42,0,23.273v93.091v93.091v93.091v93.091v93.091
	C0,501.578,10.42,512,23.273,512h93.091H256h139.636h93.091C501.58,512,512,501.578,512,488.727v-93.091v-93.091v-93.091v-93.091
	V23.273C512,10.42,501.58,0,488.727,0z"/>
<g>
	<polygon style="fill:#5286FA;" points="256,279.273 139.636,279.273 139.636,302.545 139.636,395.636 139.636,465.455 256,465.455 
		372.364,465.455 372.364,395.636 372.364,302.545 372.364,279.273 	"/>
	<polygon style="fill:#5286FA;" points="256,46.545 139.636,46.545 139.636,116.364 139.636,209.455 139.636,232.727 256,232.727 
		372.364,232.727 372.364,209.455 372.364,116.364 372.364,46.545 	"/>
</g>
<g>
	<polygon style="fill:#3D6DEB;" points="139.636,302.545 139.636,395.636 139.636,465.455 256,465.455 256,279.273 139.636,279.273 
			"/>
	<polygon style="fill:#3D6DEB;" points="139.636,116.364 139.636,209.455 139.636,232.727 256,232.727 256,46.545 139.636,46.545 	
		"/>
</g>
<path style="fill:#2633D8;" d="M139.636,465.455v-69.818v-93.091v-23.273H256v-46.545H139.636v-23.273v-93.091V46.545H256V0H116.364
	H23.273C10.42,0,0,10.42,0,23.273v93.091v93.091v93.091v93.091v93.091C0,501.578,10.42,512,23.273,512h93.091H256v-46.545H139.636z
	 M93.091,465.455H46.545v-46.545h46.545V465.455z M93.091,372.364H46.545v-46.545h46.545V372.364z M93.091,256v23.273H46.545
	v-46.545h46.545V256z M93.091,186.182H46.545v-46.545h46.545V186.182z M93.091,93.091H46.545V46.545h46.545V93.091z"/>
<g>
	<rect x="46.545" y="46.545" style="fill:#00D7DF;" width="46.545" height="46.545"/>
	<rect x="46.545" y="139.636" style="fill:#00D7DF;" width="46.545" height="46.545"/>
	<polygon style="fill:#00D7DF;" points="46.545,279.273 93.091,279.273 93.091,256 93.091,232.727 46.545,232.727 	"/>
	<rect x="46.545" y="325.818" style="fill:#00D7DF;" width="46.545" height="46.545"/>
	<rect x="46.545" y="418.909" style="fill:#00D7DF;" width="46.545" height="46.545"/>
</g>
<g>
	<rect x="418.909" y="46.545" style="fill:#00E7F0;" width="46.545" height="46.545"/>
	<rect x="418.909" y="139.636" style="fill:#00E7F0;" width="46.545" height="46.545"/>
	<polygon style="fill:#00E7F0;" points="465.455,232.727 418.909,232.727 418.909,256 418.909,279.273 465.455,279.273 	"/>
	<rect x="418.909" y="325.818" style="fill:#00E7F0;" width="46.545" height="46.545"/>
	<rect x="418.909" y="418.909" style="fill:#00E7F0;" width="46.545" height="46.545"/>
</g>
</svg>